<mxfile host="app.diagrams.net" agent="Mozilla/5.0 (X11; Linux x86_64) AppleWebKit/537.36 (KHTML, like Gecko) Chrome/138.0.0.0 Safari/537.36" version="28.2.0">
  <diagram name="PÃ¡gina-1" id="lkKHQCnJsCfu2v424Chl">
    <mxGraphModel dx="1426" dy="793" grid="1" gridSize="10" guides="1" tooltips="1" connect="1" arrows="1" fold="1" page="1" pageScale="1" pageWidth="827" pageHeight="1169" math="0" shadow="0">
      <root>
        <mxCell id="0" />
        <mxCell id="1" parent="0" />
        <mxCell id="O-o23BeJKsatneBpu5Nt-12" value="" style="edgeStyle=orthogonalEdgeStyle;rounded=0;orthogonalLoop=1;jettySize=auto;html=1;" edge="1" parent="1" source="O-o23BeJKsatneBpu5Nt-1" target="O-o23BeJKsatneBpu5Nt-2">
          <mxGeometry relative="1" as="geometry" />
        </mxCell>
        <mxCell id="O-o23BeJKsatneBpu5Nt-16" value="I2C" style="edgeLabel;html=1;align=center;verticalAlign=middle;resizable=0;points=[];" vertex="1" connectable="0" parent="O-o23BeJKsatneBpu5Nt-12">
          <mxGeometry x="0.0667" y="1" relative="1" as="geometry">
            <mxPoint as="offset" />
          </mxGeometry>
        </mxCell>
        <mxCell id="O-o23BeJKsatneBpu5Nt-1" value="Sensor de temperatura" style="rounded=0;whiteSpace=wrap;html=1;" vertex="1" parent="1">
          <mxGeometry x="110" y="150" width="170" height="60" as="geometry" />
        </mxCell>
        <mxCell id="O-o23BeJKsatneBpu5Nt-2" value="Microcontrolador" style="rounded=0;whiteSpace=wrap;html=1;" vertex="1" parent="1">
          <mxGeometry x="360" y="150" width="140" height="60" as="geometry" />
        </mxCell>
        <mxCell id="O-o23BeJKsatneBpu5Nt-3" value="Display LCD" style="rounded=0;whiteSpace=wrap;html=1;" vertex="1" parent="1">
          <mxGeometry x="140" y="240" width="120" height="60" as="geometry" />
        </mxCell>
        <mxCell id="O-o23BeJKsatneBpu5Nt-4" value="Alarme" style="rounded=0;whiteSpace=wrap;html=1;" vertex="1" parent="1">
          <mxGeometry x="590" y="370" width="120" height="60" as="geometry" />
        </mxCell>
        <mxCell id="O-o23BeJKsatneBpu5Nt-5" value="Bateria" style="rounded=0;whiteSpace=wrap;html=1;" vertex="1" parent="1">
          <mxGeometry x="125" y="370" width="120" height="60" as="geometry" />
        </mxCell>
        <mxCell id="O-o23BeJKsatneBpu5Nt-6" value="" style="endArrow=classic;html=1;rounded=0;exitX=1;exitY=0.5;exitDx=0;exitDy=0;entryX=0;entryY=0.5;entryDx=0;entryDy=0;" edge="1" parent="1" source="O-o23BeJKsatneBpu5Nt-5" target="O-o23BeJKsatneBpu5Nt-8">
          <mxGeometry width="50" height="50" relative="1" as="geometry">
            <mxPoint x="390" y="430" as="sourcePoint" />
            <mxPoint x="440" y="380" as="targetPoint" />
          </mxGeometry>
        </mxCell>
        <mxCell id="O-o23BeJKsatneBpu5Nt-20" value="5V" style="edgeLabel;html=1;align=center;verticalAlign=middle;resizable=0;points=[];" vertex="1" connectable="0" parent="O-o23BeJKsatneBpu5Nt-6">
          <mxGeometry x="-0.136" y="3" relative="1" as="geometry">
            <mxPoint as="offset" />
          </mxGeometry>
        </mxCell>
        <mxCell id="O-o23BeJKsatneBpu5Nt-10" value="" style="edgeStyle=orthogonalEdgeStyle;rounded=0;orthogonalLoop=1;jettySize=auto;html=1;" edge="1" parent="1" source="O-o23BeJKsatneBpu5Nt-8" target="O-o23BeJKsatneBpu5Nt-4">
          <mxGeometry relative="1" as="geometry" />
        </mxCell>
        <mxCell id="O-o23BeJKsatneBpu5Nt-21" value="5V" style="edgeLabel;html=1;align=center;verticalAlign=middle;resizable=0;points=[];" vertex="1" connectable="0" parent="O-o23BeJKsatneBpu5Nt-10">
          <mxGeometry x="0.12" y="-2" relative="1" as="geometry">
            <mxPoint as="offset" />
          </mxGeometry>
        </mxCell>
        <mxCell id="O-o23BeJKsatneBpu5Nt-11" value="" style="edgeStyle=orthogonalEdgeStyle;rounded=0;orthogonalLoop=1;jettySize=auto;html=1;" edge="1" parent="1" source="O-o23BeJKsatneBpu5Nt-8" target="O-o23BeJKsatneBpu5Nt-2">
          <mxGeometry relative="1" as="geometry" />
        </mxCell>
        <mxCell id="O-o23BeJKsatneBpu5Nt-19" value="3V3" style="edgeLabel;html=1;align=center;verticalAlign=middle;resizable=0;points=[];" vertex="1" connectable="0" parent="O-o23BeJKsatneBpu5Nt-11">
          <mxGeometry x="-0.1" y="-1" relative="1" as="geometry">
            <mxPoint as="offset" />
          </mxGeometry>
        </mxCell>
        <mxCell id="O-o23BeJKsatneBpu5Nt-8" value="Regulador" style="rounded=0;whiteSpace=wrap;html=1;" vertex="1" parent="1">
          <mxGeometry x="370" y="370" width="120" height="60" as="geometry" />
        </mxCell>
        <mxCell id="O-o23BeJKsatneBpu5Nt-15" value="" style="endArrow=classic;html=1;rounded=0;exitX=1;exitY=1;exitDx=0;exitDy=0;entryX=0;entryY=0;entryDx=0;entryDy=0;" edge="1" parent="1" source="O-o23BeJKsatneBpu5Nt-2" target="O-o23BeJKsatneBpu5Nt-4">
          <mxGeometry width="50" height="50" relative="1" as="geometry">
            <mxPoint x="390" y="430" as="sourcePoint" />
            <mxPoint x="440" y="380" as="targetPoint" />
          </mxGeometry>
        </mxCell>
        <mxCell id="O-o23BeJKsatneBpu5Nt-17" value="GPIO" style="edgeLabel;html=1;align=center;verticalAlign=middle;resizable=0;points=[];" vertex="1" connectable="0" parent="O-o23BeJKsatneBpu5Nt-15">
          <mxGeometry x="-0.2536" y="1" relative="1" as="geometry">
            <mxPoint as="offset" />
          </mxGeometry>
        </mxCell>
        <mxCell id="O-o23BeJKsatneBpu5Nt-23" value="" style="endArrow=classic;html=1;rounded=0;exitX=0;exitY=1;exitDx=0;exitDy=0;entryX=1;entryY=0;entryDx=0;entryDy=0;" edge="1" parent="1" source="O-o23BeJKsatneBpu5Nt-2" target="O-o23BeJKsatneBpu5Nt-3">
          <mxGeometry width="50" height="50" relative="1" as="geometry">
            <mxPoint x="390" y="430" as="sourcePoint" />
            <mxPoint x="440" y="380" as="targetPoint" />
          </mxGeometry>
        </mxCell>
        <mxCell id="O-o23BeJKsatneBpu5Nt-24" value="SPI" style="edgeLabel;html=1;align=center;verticalAlign=middle;resizable=0;points=[];" vertex="1" connectable="0" parent="O-o23BeJKsatneBpu5Nt-23">
          <mxGeometry x="0.026" y="-3" relative="1" as="geometry">
            <mxPoint as="offset" />
          </mxGeometry>
        </mxCell>
        <mxCell id="O-o23BeJKsatneBpu5Nt-25" value="" style="endArrow=classic;html=1;rounded=0;exitX=0;exitY=0;exitDx=0;exitDy=0;entryX=1;entryY=1;entryDx=0;entryDy=0;" edge="1" parent="1" source="O-o23BeJKsatneBpu5Nt-8" target="O-o23BeJKsatneBpu5Nt-3">
          <mxGeometry width="50" height="50" relative="1" as="geometry">
            <mxPoint x="390" y="430" as="sourcePoint" />
            <mxPoint x="440" y="380" as="targetPoint" />
          </mxGeometry>
        </mxCell>
        <mxCell id="O-o23BeJKsatneBpu5Nt-26" value="5V" style="edgeLabel;html=1;align=center;verticalAlign=middle;resizable=0;points=[];" vertex="1" connectable="0" parent="O-o23BeJKsatneBpu5Nt-25">
          <mxGeometry x="-0.2541" y="4" relative="1" as="geometry">
            <mxPoint as="offset" />
          </mxGeometry>
        </mxCell>
      </root>
    </mxGraphModel>
  </diagram>
</mxfile>
